<svg id="Layer_1" data-name="Layer 1" xmlns="http://www.w3.org/2000/svg" width="640.62" height="219.55" viewBox="0 0 640.62 219.55"><defs><style>.cls-1{fill:#fff;}</style></defs><title>logo</title><path class="cls-1" d="M694.3,428.14c-22.15,0-39.23-16.07-39.23-39.67v-2.06c0-20.75,16.63-38.05,37.38-38,24.3,0,36.31,20,36.31,37.64a8.19,8.19,0,0,1-8.25,8.4H674.18a1.34,1.34,0,0,0-1.31,1.62c2.38,11.43,10.92,17.78,21.71,17.78a27.47,27.47,0,0,0,18.1-6.66,6.52,6.52,0,0,1,4.49-1.59,6.89,6.89,0,0,1,6.95,7.09,7.65,7.65,0,0,1-2.32,5.36C714.86,424.23,706.17,428.14,694.3,428.14Zm15.13-45.31a2,2,0,0,0,1.93-2.28c-1.78-10.18-8.29-17.84-19.08-17.84-9.95,0-17.15,7.11-19.4,17.64a2.08,2.08,0,0,0,2.05,2.49Z" transform="translate(-436.29 -275.23)"/><path class="cls-1" d="M738,357.93a8.65,8.65,0,0,1,9.07-8.82,9,9,0,0,1,8.45,9.08v.06a1.12,1.12,0,0,0,2,.71c4.73-5.75,11.1-10.58,21.31-10.58,9.66,0,16.87,4.13,21.23,10.63a2.33,2.33,0,0,0,3.7.29c5.83-6.67,13.39-10.92,23.72-10.92,16.65,0,26.78,10.57,26.78,29.24v40.53a8.9,8.9,0,0,1-9,9,8.64,8.64,0,0,1-8.52-8.68V383c0-12.16-5.65-18.67-15.49-18.67-9.55,0-16.36,6.66-16.36,19v35.18a8.62,8.62,0,0,1-8.69,8.69,9,9,0,0,1-8.83-9.16V382.83c0-11.87-5.79-18.53-15.49-18.53s-16.36,7.24-16.36,19V418a9,9,0,0,1-8.83,9.16,8.62,8.62,0,0,1-8.69-8.69Z" transform="translate(-436.29 -275.23)"/><path class="cls-1" d="M861.79,404.4v-.29c0-16.5,12.88-24.61,31.56-24.61a63.41,63.41,0,0,1,18.95,2.69,1.26,1.26,0,0,0,1.61-1.21v-.18c0-10.86-6.66-16.65-19-16.65a45.4,45.4,0,0,0-16.91,3l-.06,0a9.15,9.15,0,0,1-3.39.4,7.32,7.32,0,0,1-6.12-4.36,7.48,7.48,0,0,1,4.19-9.8A65.51,65.51,0,0,1,897.26,349c11.44,0,20,3,25.33,8.54,5.65,5.5,8.25,13.61,8.25,23.6v36.76c0,5.94-5.62,10.53-11.33,8.9a7.48,7.48,0,0,1-5.75-7v-1.26a.61.61,0,0,0-1.06-.42c-5.21,5.64-12.88,9.94-23.83,9.94C874.53,428,861.79,419.74,861.79,404.4Zm52.41-5.5V397a4.55,4.55,0,0,0-3.25-4.37,50.5,50.5,0,0,0-14.12-1.94c-11.29,0-18,4.78-18,12.74v.29c0,7.38,6.51,11.58,14.91,11.58C905.36,415.26,914.2,408.6,914.2,398.9Z" transform="translate(-436.29 -275.23)"/><path class="cls-1" d="M940,329.41c0-5.21,4.34-8.54,10-8.54s10,3.33,10,8.54v.87c0,5.21-4.34,8.69-10,8.69s-10-3.47-10-8.69Zm1.3,28.52a8.65,8.65,0,0,1,9.07-8.82,9,9,0,0,1,8.45,9.08V418a9,9,0,0,1-8.83,9.16,8.62,8.62,0,0,1-8.68-8.69Z" transform="translate(-436.29 -275.23)"/><path class="cls-1" d="M974,328.69a8.62,8.62,0,0,1,8.69-8.69,8.74,8.74,0,0,1,8.83,8.69V418a9,9,0,0,1-8.83,9.16,8.62,8.62,0,0,1-8.68-8.69Z" transform="translate(-436.29 -275.23)"/><path class="cls-1" d="M1010.32,447.83a7.46,7.46,0,0,1-5.5-7.24,7,7,0,0,1,7.09-7.24,8.93,8.93,0,0,1,3.18.58,19.81,19.81,0,0,0,6.08,1c5.21,0,8-2.17,10.86-8.11l.58-1.59-28.37-63.41a11.83,11.83,0,0,1-1-4.2,8.41,8.41,0,0,1,8.69-8.54c4.49,0,6.95,2.61,8.54,6.66l19.29,47.68a1.32,1.32,0,0,0,2.46,0l17.92-47.65c1.45-3.62,3.91-6.66,8.4-6.66a8.28,8.28,0,0,1,8.4,8.25,15.74,15.74,0,0,1-.72,4.2l-27.94,67c-6.51,15.63-13.46,21.43-25.77,21.43A30.94,30.94,0,0,1,1010.32,447.83Z" transform="translate(-436.29 -275.23)"/><path class="cls-1" d="M516.17,330.32c-38.23-2.35-95.62,27.73-75.85,43,7.16,5.52,17.56,6.55,30.7,15.32.51-2.83,2.06-7,6.38-11.56C488.95,362.77,507.58,340.5,516.17,330.32Z" transform="translate(-436.29 -275.23)"/><path class="cls-1" d="M600.21,416.43c0,.06,0,.11,0,.17-9.56,7.9-31.83,26.08-46.06,37.29-6.06,5.61-11.44,6.32-13.68,6.29,10.43,13.33,11.14,23.84,17,30.9,15.67,19,47.72-39.42,42.76-74.64Z" transform="translate(-436.29 -275.23)"/><path class="cls-1" d="M491.48,440.06c-6.93-6.72-11.44-14.21-13.11-20.61a21.91,21.91,0,0,0-12.84,6.28c-10.25,10.21-21.68,41-11.43,51.23s41.16-1.17,51.42-11.38a21.3,21.3,0,0,0,6.17-13.06C505.33,450.7,498.06,446.44,491.48,440.06Z" transform="translate(-436.29 -275.23)"/><path class="cls-1" d="M654.62,276.35c-5.4-4.79-75.75,4.45-125.22,53.61-30.65,30.45-42.77,50.86-47.15,55.77-5.9,12.66-11,20,15.58,46.4s35.58,23.21,49,17.11c4.86-4.22,25.19-16,55.83-46.45C652.18,353.63,659.78,281.22,654.62,276.35ZM592.75,376.81a27.35,27.35,0,1,1,0-38.71A27.29,27.29,0,0,1,592.75,376.81Z" transform="translate(-436.29 -275.23)"/><path class="cls-1" d="M583.18,347.8a13.62,13.62,0,0,1,0,19.35,13.84,13.84,0,0,1-19.48,0,13.63,13.63,0,0,1,0-19.35A13.84,13.84,0,0,1,583.18,347.8Z" transform="translate(-436.29 -275.23)"/></svg>